<svg width="115" height="21" viewBox="0 0 115 21" fill="none" xmlns="http://www.w3.org/2000/svg">
<path d="M22.4623 12.9289C22.4623 8.99797 19.823 6.33057 15.7798 6.33057C13.7862 6.33057 12.242 7.25714 11.2312 8.96989C10.2204 7.25714 8.67607 6.33057 6.68254 6.33057C2.77971 6.33057 0 8.85758 0 12.9289V20.5099H4.21168V12.9289C4.21168 11.3565 4.96979 10.2334 6.62638 10.2334C8.31106 10.2334 9.12532 11.3284 9.12532 12.9289V20.5099H13.337V12.9289C13.337 11.3565 14.1513 10.2334 15.8079 10.2334C17.4925 10.2334 18.2506 11.3284 18.2506 12.9289V20.5099H22.4623V12.9289Z" fill="#080808"/>
<path d="M28.8359 11.8058C29.5098 10.6826 30.5768 10.4019 31.8122 10.4019C32.4299 10.4019 33.6653 10.4299 33.6653 11.3004C33.6653 12.1146 32.2334 12.2269 31.6718 12.2269C31.2226 12.2269 30.7452 12.1988 30.2398 12.1146C29.7344 12.0585 29.2571 11.9461 28.8359 11.8058ZM36.782 16.1298C36.1081 16.3263 35.2939 16.4105 34.5919 16.4667C33.8338 16.579 33.0757 16.6071 32.3176 16.6071C30.8576 16.6071 29.1729 16.3544 28.6113 14.782C29.566 15.1751 30.6049 15.4559 31.6437 15.4559C34.3673 15.4559 37.9051 14.2485 37.9051 10.9915C37.9051 7.70638 34.5638 6.33057 31.6718 6.33057C27.4321 6.33057 24.2312 9.0822 24.2312 13.5466C24.2312 18.0671 27.5444 20.6784 32.0087 20.6784C33.6373 20.6784 35.2096 20.4257 36.782 20.0607V16.1298Z" fill="#080808"/>
<path d="M49.6978 13.4903C49.6978 15.5961 48.6589 16.7473 46.525 16.7473C45.9353 16.7473 45.4299 16.6631 45.0087 16.4665C44.2506 16.1577 43.661 15.568 43.4364 14.7538C43.296 14.3607 43.2398 13.9395 43.2398 13.4903C43.2398 13.041 43.296 12.6199 43.4364 12.2268C43.6891 11.3844 44.2226 10.851 45.0087 10.4859C45.4299 10.3175 45.9353 10.2332 46.525 10.2332C48.6589 10.2332 49.6978 11.3844 49.6978 13.4903ZM49.6978 7.8747C48.715 6.75158 47.4234 6.33041 45.9353 6.33041C41.9483 6.33041 39.0282 9.58745 39.0282 13.5464C39.0282 17.8424 42.1729 20.6501 46.4969 20.6501C50.7366 20.6501 53.9094 17.9547 53.9094 13.4903V0.855225H49.6978V7.8747Z" fill="#080808"/>
<path d="M67.5553 15.8771C66.4603 16.4667 64.6352 16.6913 63.3998 16.6913C62.4732 16.6913 61.322 16.4948 60.7043 15.7367C60.4235 15.4559 60.227 15.1189 60.1147 14.7259C59.9743 14.3608 59.9181 13.9397 59.9181 13.4904C59.9181 12.7042 60.1147 11.8619 60.7043 11.2723C61.3501 10.5423 62.4732 10.3457 63.3998 10.3457C64.7756 10.3457 66.3199 10.5142 67.5553 11.16V6.94828C66.1233 6.47096 64.6352 6.33057 63.1471 6.33057C58.9073 6.33057 55.7064 9.05412 55.7064 13.5185C55.7064 17.8144 58.795 20.7064 63.1471 20.7064C64.6352 20.7064 66.1233 20.5661 67.5553 20.0887V15.8771Z" fill="#080808"/>
<path d="M69.9699 0.855225V20.5098H74.1816V0.855225H69.9699Z" fill="#080808"/>
<path d="M76.9894 6.47084V20.5098H81.201V6.47084H76.9894ZM79.0952 5.15118C80.5833 5.15118 81.5099 4.19653 81.5099 2.7084C81.5099 1.24835 80.5553 0.293701 79.0952 0.293701C77.6632 0.293701 76.6524 1.24835 76.6524 2.7084C76.6524 4.14037 77.6632 5.15118 79.0952 5.15118Z" fill="#080808"/>
<path d="M98.4689 13.4904C98.4689 9.30682 95.6611 6.33057 91.309 6.33057C87.1254 6.33057 84.1492 9.16643 84.1492 13.4904V20.5099H88.3609V13.4904C88.3609 11.5811 89.2874 10.2334 91.309 10.2334C93.3587 10.2334 94.2572 11.5531 94.2572 13.4904V20.5099H98.4689V13.4904Z" fill="#080808"/>
<path d="M107.426 16.4666L110.374 20.5098H115.007L109.756 13.2938L114.726 6.47083H110.093L107.426 10.121L104.758 6.47083H100.125L105.123 13.2938L99.8447 20.5098H104.478L107.426 16.4666Z" fill="#0140FD"/>
</svg>
