<svg width="114" height="22" viewBox="0 0 114 22" fill="none" xmlns="http://www.w3.org/2000/svg">
<path d="M22.091 13.3887C22.091 9.52273 19.4953 6.89941 15.519 6.89941C13.5584 6.89941 12.0396 7.81067 11.0455 9.49511C10.0514 7.81067 8.53266 6.89941 6.57208 6.89941C2.73377 6.89941 0 9.38466 0 13.3887V20.8444H4.14207V13.3887C4.14207 11.8423 4.88764 10.7377 6.51686 10.7377C8.17369 10.7377 8.97448 11.8147 8.97448 13.3887V20.8444H13.1166V13.3887C13.1166 11.8423 13.9174 10.7377 15.5466 10.7377C17.2034 10.7377 17.949 11.8147 17.949 13.3887V20.8444H22.091V13.3887Z" fill="#080808"/>
<path d="M28.3597 12.2841C29.0224 11.1796 30.0718 10.9034 31.2868 10.9034C31.8943 10.9034 33.1093 10.931 33.1093 11.7871C33.1093 12.5879 31.701 12.6983 31.1487 12.6983C30.7069 12.6983 30.2375 12.6707 29.7404 12.5879C29.2434 12.5326 28.7739 12.4222 28.3597 12.2841ZM36.1744 16.5366C35.5117 16.7299 34.7109 16.8128 34.0205 16.868C33.275 16.9785 32.5294 17.0061 31.7838 17.0061C30.3479 17.0061 28.6911 16.7575 28.1388 15.2112C29.0777 15.5978 30.0994 15.8739 31.1211 15.8739C33.7996 15.8739 37.279 14.6865 37.279 11.4833C37.279 8.25249 33.9929 6.89941 31.1487 6.89941C26.979 6.89941 23.8311 9.60557 23.8311 13.9962C23.8311 18.442 27.0895 21.0101 31.4801 21.0101C33.0817 21.0101 34.6281 20.7615 36.1744 20.4026V16.5366Z" fill="#080808"/>
<path d="M48.8765 13.9418C48.8765 16.0129 47.8548 17.145 45.7562 17.145C45.1763 17.145 44.6792 17.0622 44.265 16.8689C43.5195 16.5651 42.9396 15.9853 42.7187 15.1845C42.5806 14.7979 42.5254 14.3837 42.5254 13.9418C42.5254 13.5 42.5806 13.0858 42.7187 12.6992C42.9672 11.8708 43.4919 11.3461 44.265 10.9872C44.6792 10.8215 45.1763 10.7386 45.7562 10.7386C47.8548 10.7386 48.8765 11.8708 48.8765 13.9418ZM48.8765 8.41907C47.9101 7.31452 46.6398 6.90032 45.1763 6.90032C41.2551 6.90032 38.3833 10.1035 38.3833 13.9971C38.3833 18.222 41.476 20.9834 45.7286 20.9834C49.8983 20.9834 53.0186 18.3324 53.0186 13.9418V1.51562H48.8765V8.41907Z" fill="#080808"/>
<path d="M66.4382 16.2881C65.3612 16.868 63.5663 17.0889 62.3513 17.0889C61.4401 17.0889 60.3079 16.8956 59.7004 16.15C59.4243 15.8739 59.231 15.5425 59.1205 15.1559C58.9825 14.797 58.9272 14.3828 58.9272 13.9409C58.9272 13.1677 59.1205 12.3393 59.7004 11.7594C60.3355 11.0415 61.4401 10.8482 62.3513 10.8482C63.7044 10.8482 65.2232 11.0139 66.4382 11.649V7.50692C65.0299 7.03748 63.5663 6.89941 62.1028 6.89941C57.9331 6.89941 54.7852 9.57795 54.7852 13.9685C54.7852 18.1935 57.8227 21.0377 62.1028 21.0377C63.5663 21.0377 65.0299 20.8996 66.4382 20.4302V16.2881Z" fill="#080808"/>
<path d="M68.813 1.51562V20.8453H72.9551V1.51562H68.813Z" fill="#080808"/>
<path d="M75.7166 7.03793V20.8448H79.8587V7.03793H75.7166ZM77.7877 5.74008C79.2512 5.74008 80.1624 4.80121 80.1624 3.33768C80.1624 1.90176 79.2236 0.962891 77.7877 0.962891C76.3794 0.962891 75.3853 1.90176 75.3853 3.33768C75.3853 4.74598 76.3794 5.74008 77.7877 5.74008Z" fill="#080808"/>
<path d="M96.8413 13.9409C96.8413 9.82648 94.08 6.89941 89.7998 6.89941C85.6854 6.89941 82.7583 9.68841 82.7583 13.9409V20.8444H86.9004V13.9409C86.9004 12.0632 87.8116 10.7377 89.7998 10.7377C91.8156 10.7377 92.6993 12.0356 92.6993 13.9409V20.8444H96.8413V13.9409Z" fill="#080808"/>
<path d="M105.65 16.8686L108.55 20.845H113.106L107.942 13.7482L112.83 7.03809H108.273L105.65 10.6279L103.027 7.03809H98.4705L103.386 13.7482L98.1943 20.845H102.751L105.65 16.8686Z" fill="#0140FD"/>
</svg>
